{
  "accessors": [
    {
      "bufferView": 2,
      "componentType": 5126,
      "count": 8416,
      "max": [
        11.952314376831055,
        11.952315330505371,
        11.995346069335938
      ],
      "min": [
        -11.952316284179688,
        -11.952314376831055,
        -11.995346069335938
      ],
      "type": "VEC3"
    },
    {
      "bufferView": 2,
      "byteOffset": 100992,
      "componentType": 5126,
      "count": 8416,
      "max": [
        1.0,
        1.0,
        1.0
      ],
      "min": [
        -1.0,
        -1.0,
        -1.0
      ],
      "type": "VEC3"
    },
    {
      "bufferView": 3,
      "componentType": 5126,
      "count": 8416,
      "max": [
        0.9522761106491089,
        0.9531850218772888,
        1.0,
        1.0
      ],
      "min": [
        -0.9550308585166931,
        -0.95186847448349,
        -0.17345289885997772,
        1.0
      ],
      "type": "VEC4"
    },
    {
      "bufferView": 1,
      "componentType": 5126,
      "count": 8416,
      "max": [
        0.9973090291023254,
        0.9973080158233643
      ],
      "min": [
        0.0022009999956935644,
        0.0022009999956935644
      ],
      "type": "VEC2"
    },
    {
      "bufferView": 1,
      "byteOffset": 67328,
      "componentType": 5126,
      "count": 8416,
      "max": [
        1.022469162940979,
        0.808402419090271
      ],
      "min": [
        -0.15496744215488434,
        -0.6524053812026978
      ],
      "type": "VEC2"
    },
    {
      "bufferView": 0,
      "componentType": 5125,
      "count": 42048,
      "type": "SCALAR"
    }
  ],
  "asset": {
    "extras": {
      "author": "romullus (https://sketchfab.com/romullus)",
      "license": "SKETCHFAB Editorial (https://sketchfab.com/licenses)",
      "source": "https://sketchfab.com/3d-models/basketball-nba-spalding-pbr-3dce6852e65745ea9c5a76352bc4d287",
      "title": "Basketball NBA Spalding PBR"
    },
    "generator": "Sketchfab-12.29.0",
    "version": "2.0"
  },
  "bufferViews": [
    {
      "buffer": 0,
      "byteLength": 168192,
      "name": "floatBufferViews",
      "target": 34963
    },
    {
      "buffer": 0,
      "byteLength": 134656,
      "byteOffset": 168192,
      "byteStride": 8,
      "name": "floatBufferViews",
      "target": 34962
    },
    {
      "buffer": 0,
      "byteLength": 201984,
      "byteOffset": 302848,
      "byteStride": 12,
      "name": "floatBufferViews",
      "target": 34962
    },
    {
      "buffer": 0,
      "byteLength": 134656,
      "byteOffset": 504832,
      "byteStride": 16,
      "name": "floatBufferViews",
      "target": 34962
    }
  ],
  "buffers": [
    {
      "byteLength": 639488,
      "uri": "scene.bin"
    }
  ],
  "images": [
    {
      "uri": "textures/modeling_mat_01_baseColor.jpeg"
    },
    {
      "uri": "textures/modeling_mat_01_metallicRoughness.png"
    },
    {
      "uri": "textures/modeling_mat_01_normal.png"
    }
  ],
  "materials": [
    {
      "doubleSided": true,
      "name": "modeling_mat_01",
      "normalTexture": {
        "index": 2
      },
      "pbrMetallicRoughness": {
        "baseColorTexture": {
          "index": 0
        },
        "metallicFactor": 0.0,
        "metallicRoughnessTexture": {
          "index": 1
        }
      }
    }
  ],
  "meshes": [
    {
      "name": "BasketBall_modeling mat 01_0",
      "primitives": [
        {
          "attributes": {
            "NORMAL": 1,
            "POSITION": 0,
            "TANGENT": 2,
            "TEXCOORD_0": 3,
            "TEXCOORD_1": 4
          },
          "indices": 5,
          "material": 0,
          "mode": 4
        }
      ]
    }
  ],
  "nodes": [
    {
      "children": [
        1
      ],
      "matrix": [
        1.0,
        0.0,
        0.0,
        0.0,
        0.0,
        2.220446049250313e-16,
        -1.0,
        0.0,
        0.0,
        1.0,
        2.220446049250313e-16,
        0.0,
        0.0,
        0.0,
        0.0,
        1.0
      ],
      "name": "Sketchfab_model"
    },
    {
      "children": [
        2
      ],
      "matrix": [
        1.0,
        0.0,
        0.0,
        0.0,
        0.0,
        0.0,
        1.0,
        0.0,
        0.0,
        -1.0,
        0.0,
        0.0,
        0.0,
        0.0,
        0.0,
        1.0
      ],
      "name": "4899b7c7dc5e449ea1baf577bfd817e7.fbx"
    },
    {
      "children": [
        3
      ],
      "name": "RootNode"
    },
    {
      "children": [
        4
      ],
      "matrix": [
        1.0,
        0.0,
        0.0,
        0.0,
        0.0,
        0.999999999999999,
        4.371138828673792e-08,
        0.0,
        0.0,
        -4.371138828673792e-08,
        0.999999999999999,
        0.0,
        0.0,
        11.949463844299316,
        5.381500045587018e-07,
        1.0
      ],
      "name": "BasketBall"
    },
    {
      "mesh": 0,
      "name": "BasketBall_modeling mat 01_0"
    }
  ],
  "samplers": [
    {
      "magFilter": 9729,
      "minFilter": 9987,
      "wrapS": 10497,
      "wrapT": 10497
    }
  ],
  "scene": 0,
  "scenes": [
    {
      "name": "Sketchfab_Scene",
      "nodes": [
        0
      ]
    }
  ],
  "textures": [
    {
      "sampler": 0,
      "source": 0
    },
    {
      "sampler": 0,
      "source": 1
    },
    {
      "sampler": 0,
      "source": 2
    }
  ]
}
